<?xml version="1.0" encoding="UTF-8"?>
<!DOCTYPE svg PUBLIC "-//W3C//DTD SVG 1.1//EN" "http://www.w3.org/Graphics/SVG/1.1/DTD/svg11.dtd">
<!-- Creator: CorelDRAW -->
<svg xmlns="http://www.w3.org/2000/svg" xml:space="preserve" width="1000px" height="1000px" style="shape-rendering:geometricPrecision; text-rendering:geometricPrecision; image-rendering:optimizeQuality; fill-rule:evenodd; clip-rule:evenodd"
viewBox="0 0 1000 1000"
 xmlns:xlink="http://www.w3.org/1999/xlink">
 <defs>
  <style type="text/css">
   <![CDATA[
    .str2 {stroke:black;stroke-width:4.79764;stroke-linecap:round;stroke-linejoin:round}
    .str1 {stroke:black;stroke-width:4.80118;stroke-linecap:round;stroke-linejoin:round}
    .str0 {stroke:black;stroke-width:4.80591;stroke-linecap:round;stroke-linejoin:round}
    .fil8 {fill:black}
    .fil9 {fill:#0F0F0F}
    .fil14 {fill:#8F794D}
    .fil12 {fill:#9C1C02}
    .fil3 {fill:#DBDBDB}
    .fil24 {fill:#E3C281}
    .fil0 {fill:#E5E5E5}
    .fil13 {fill:#E6DEDB}
    .fil7 {fill:white}
    .fil6 {fill:url(#id0)}
    .fil30 {fill:url(#id1)}
    .fil15 {fill:url(#id2)}
    .fil2 {fill:url(#id3)}
    .fil5 {fill:url(#id4)}
    .fil4 {fill:url(#id5)}
    .fil18 {fill:url(#id6)}
    .fil11 {fill:url(#id7)}
    .fil1 {fill:url(#id8)}
    .fil22 {fill:url(#id9)}
    .fil29 {fill:url(#id10)}
    .fil25 {fill:url(#id11)}
    .fil10 {fill:url(#id12)}
    .fil19 {fill:url(#id13)}
    .fil21 {fill:url(#id14)}
    .fil28 {fill:url(#id15)}
    .fil20 {fill:url(#id16)}
    .fil27 {fill:url(#id17)}
    .fil16 {fill:url(#id18)}
    .fil23 {fill:url(#id19)}
    .fil17 {fill:url(#id20)}
    .fil26 {fill:url(#id21)}
   ]]>
  </style>
  <linearGradient id="id0" gradientUnits="userSpaceOnUse" x1="462.585" y1="73.2379" x2="535.421" y2="124.514">
   <stop offset="0" style="stop-color:white"/>
   <stop offset="1" style="stop-color:#E5E5E5"/>
  </linearGradient>
  <linearGradient id="id1" gradientUnits="userSpaceOnUse" x1="71.6481" y1="928.11" x2="485.723" y2="961.123">
   <stop offset="0" style="stop-color:#E6DEDB"/>
   <stop offset="1" style="stop-color:white"/>
  </linearGradient>
  <linearGradient id="id2" gradientUnits="userSpaceOnUse" x1="441.662" y1="898.458" x2="663.723" y2="508.52">
   <stop offset="0" style="stop-color:#E7DCC7"/>
   <stop offset="1" style="stop-color:#A38D62"/>
  </linearGradient>
  <linearGradient id="id3" gradientUnits="userSpaceOnUse" x1="960.793" y1="157.348" x2="73.4233" y2="168.119">
   <stop offset="0" style="stop-color:#DBDBDB"/>
   <stop offset="1" style="stop-color:#5D4B3D"/>
  </linearGradient>
  <linearGradient id="id4" gradientUnits="userSpaceOnUse" xlink:href="#id0" x1="361.514" y1="71.6682" x2="464.441" y2="124.267">
  </linearGradient>
  <linearGradient id="id5" gradientUnits="userSpaceOnUse" xlink:href="#id0" x1="420.134" y1="69.8634" x2="518.078" y2="137.453">
  </linearGradient>
  <linearGradient id="id6" gradientUnits="userSpaceOnUse" x1="455.941" y1="723.44" x2="465.956" y2="776.644">
   <stop offset="0" style="stop-color:#EDE7E3"/>
   <stop offset="1" style="stop-color:#E6DEDB"/>
  </linearGradient>
  <linearGradient id="id7" gradientUnits="userSpaceOnUse" x1="902.082" y1="895.889" x2="834.931" y2="706.669">
   <stop offset="0" style="stop-color:black"/>
   <stop offset="1" style="stop-color:#9F8D7A"/>
  </linearGradient>
  <linearGradient id="id8" gradientUnits="userSpaceOnUse" x1="211.132" y1="236.785" x2="196.519" y2="90.8221">
   <stop offset="0" style="stop-color:black"/>
   <stop offset="0.509804" style="stop-color:#675555"/>
   <stop offset="1" style="stop-color:black"/>
  </linearGradient>
  <linearGradient id="id9" gradientUnits="userSpaceOnUse" x1="694.231" y1="475.607" x2="710.108" y2="512.819">
   <stop offset="0" style="stop-color:#BBAA8B"/>
   <stop offset="1" style="stop-color:#8F794D"/>
  </linearGradient>
  <linearGradient id="id10" gradientUnits="userSpaceOnUse" x1="121.362" y1="723.654" x2="149.737" y2="754.886">
   <stop offset="0" style="stop-color:#F2EBDE"/>
   <stop offset="1" style="stop-color:#E7DCC7"/>
  </linearGradient>
  <linearGradient id="id11" gradientUnits="userSpaceOnUse" x1="158.4" y1="806.186" x2="272.421" y2="631.436">
   <stop offset="0" style="stop-color:#EEE0AC"/>
   <stop offset="0.568627" style="stop-color:white"/>
   <stop offset="1" style="stop-color:#EEE0AC"/>
  </linearGradient>
  <linearGradient id="id12" gradientUnits="userSpaceOnUse" x1="831.592" y1="571.386" x2="911.272" y2="583.504">
   <stop offset="0" style="stop-color:#E5E5E5"/>
   <stop offset="1" style="stop-color:#CCCCCC"/>
  </linearGradient>
  <linearGradient id="id13" gradientUnits="userSpaceOnUse" xlink:href="#id6" x1="506.654" y1="761.484" x2="515.517" y2="780.983">
  </linearGradient>
  <linearGradient id="id14" gradientUnits="userSpaceOnUse" x1="625.263" y1="505.531" x2="639.844" y2="525.459">
   <stop offset="0" style="stop-color:#D6C4A0"/>
   <stop offset="1" style="stop-color:#8F794D"/>
  </linearGradient>
  <linearGradient id="id15" gradientUnits="userSpaceOnUse" x1="258.434" y1="648.375" x2="282.677" y2="664.825">
   <stop offset="0" style="stop-color:#F6F1EA"/>
   <stop offset="1" style="stop-color:#E7DCC7"/>
  </linearGradient>
  <linearGradient id="id16" gradientUnits="userSpaceOnUse" xlink:href="#id9" x1="642.241" y1="550.696" x2="678.595" y2="565.238">
  </linearGradient>
  <linearGradient id="id17" gradientUnits="userSpaceOnUse" xlink:href="#id15" x1="194.015" y1="744.702" x2="228.551" y2="765.259">
  </linearGradient>
  <linearGradient id="id18" gradientUnits="userSpaceOnUse" xlink:href="#id6" x1="557.778" y1="648.987" x2="590.963" y2="672.003">
  </linearGradient>
  <linearGradient id="id19" gradientUnits="userSpaceOnUse" x1="215.071" y1="699.19" x2="279.06" y2="634.271">
   <stop offset="0" style="stop-color:#E7DCC7"/>
   <stop offset="1" style="stop-color:#D6C4A0"/>
  </linearGradient>
  <linearGradient id="id20" gradientUnits="userSpaceOnUse" x1="513.593" y1="619.393" x2="542.656" y2="644.15">
   <stop offset="0" style="stop-color:white"/>
   <stop offset="1" style="stop-color:#E6DEDB"/>
  </linearGradient>
  <linearGradient id="id21" gradientUnits="userSpaceOnUse" xlink:href="#id10" x1="240.675" y1="615.038" x2="255.104" y2="630.316">
  </linearGradient>
 </defs>
 <g id="Livello_x0020_1">
  <metadata id="CorelCorpID_0Corel-Layer"/>
  <g id="_47521864">
   <path id="_46290152" class="fil0" d="M750.518 165.643c0,0 -1.85551,32.1567 -28.4244,50.6835 -26.5701,18.528 -45.3366,18.6059 -45.3366,18.6059l9.36615 -8.81694c0,0 -6.45237,5.68347 -47.4804,9.60237 -41.028,3.91772 -112.465,4.10079 -192.366,4.59331 -79.9028,0.49252 -127.33,-0.822048 -138.819,-2.37402 -11.4886,-1.55079 -27.124,0.925985 -27.4311,1.25433 -0.305906,0.329528 2.93268,-0.43937 14.0469,-11.1378 11.113,-10.6973 14.361,-15.4099 14.361,-15.4099 0,0 -27.724,23.863 -43.1717,22.2756 -15.4488,-1.5874 -69.5233,-0.941339 -102.307,-3.37914 -32.7827,-2.43662 -39.4642,1.71024 -45.1866,-0.894095 -5.72245,-2.60551 -6.50197,-4.6878 -6.50197,-4.6878 0,0 9.10631,-1.03465 20.3823,-19.7351 11.2772,-18.7004 20.7272,-29.5961 20.7272,-29.5961 0,0 -10.3323,6.00355 -19.7315,18.3047 -9.39922,12.3012 -8.07638,19.6382 -17.3681,25.2532 -9.29174,5.61497 -19.3051,1.05591 -19.3051,1.05591 0,0 3.07087,-2.57362 7.31693,-11.5217 4.24607,-8.94804 10.2862,-16.9051 10.2862,-16.9051 0,0 -7.80945,7.67008 -15.2291,16.3819 -7.41969,8.71182 -10.2555,8.11182 -10.2555,8.11182l-12.2492 -7.99489c0,0 6.71693,-8.68583 8.35749,-11.9102 1.64173,-3.22559 -10.5673,9.17717 -10.5673,9.17717 0,0 -22.2839,-22.7516 -24.8587,-25.8225 -2.57362,-3.07205 -1.75748,-19.2803 3.76536,-31.7918 5.52166,-12.5114 6.87638,-13.9677 6.87638,-13.9677 0,0 8.99883,5.65158 14.6953,7.55434 5.69646,1.90158 10.6394,2.42481 10.6394,2.42481l-22.9666 -12.5268c0,0 15.5433,-17.4496 32.1461,-25.089 16.604,-7.63938 48.7583,-3.53622 48.7583,-3.53622l-21.6425 -5.18977c0,0 16.265,-7.2756 63.9567,-11.126 47.6918,-3.84922 80.3646,4.80709 80.3646,4.80709 0,0 -2.98937,-4.81536 -16.0996,-7.50237 -13.1114,-2.68701 -19.1209,-3.52323 -19.1209,-3.52323 0,0 4.1374,-2.26063 38.2205,-3.15236 34.0843,-0.891733 63.0957,-5.81811 91.4576,-9.31418 28.3607,-3.49607 48.3626,4.91811 48.3626,4.91811 0,0 7.78465,-8.37284 22.5874,-7.50591 14.8039,0.86693 25.2083,6.46654 25.2083,6.46654 0,0 17.3315,-6.9626 22.2992,-5.7378 4.9689,1.22599 11.3941,3.80551 11.3941,3.80551 0,0 9.62954,-5.97874 21.6236,-5.00906 11.9929,0.969686 32.9599,6.88701 32.9599,6.88701 0,0 12.6957,0.943702 23.2843,1.96417 10.5886,1.02165 25.0477,11.7484 25.0477,11.7484 0,0 4.61103,-8.60906 17.7732,-4.51654 13.1622,4.09252 29.3658,14.4036 29.3658,14.4036 0,0 4.16811,-11.0551 12.7772,-6.4441 8.61024,4.60985 16.8756,19.0795 26.002,28.2425 9.12639,9.16418 22.0536,16.4303 22.0536,16.4303 0,0 -17.6847,-12.3685 -28.0063,-25.3571 -10.3217,-12.9886 -15.1571,-20.198 -15.1571,-20.198 0,0 2.93858,3.40985 13.8083,12.1583 10.8709,8.74725 20.1307,11.9268 20.1307,11.9268 0,0 -10.4551,-7.00394 -13.7563,-10.7528 -3.30236,-3.74882 -9.62009,-13.0146 -9.62009,-13.0146 0,0 12.7169,11.1425 26.0079,18.7477 13.2898,7.60512 25.252,17.3681 25.252,17.3681 0,0 -0.388583,-1.04055 -13.0536,-10.7787 -12.665,-9.7382 -27.3047,-25.3819 -27.3047,-25.3819 0,0 16.3571,14.5264 25.3051,18.7725 8.94686,4.24607 20.315,7.34882 20.315,7.34882 0,0 -11.7319,-3.44173 -18.9047,-16.8969 -7.17402,-13.4551 -4.43032,-34.6571 -4.43032,-34.6571 0,0 5.65512,29.6882 18.0591,41.8985 12.4028,12.2091 23.7709,15.3118 23.7709,15.3118 0,0 9.6756,4.92166 -2.36339,-6.94843 -12.039,-11.8713 -21.7406,-17.4957 -21.7406,-17.4957 0,0 9.18308,1.07126 20.3669,8.75316 11.1827,7.68071 20.3103,16.8449 20.3103,16.8449 0,0 2.21457,-6.76418 -6.96379,-17.3315 -9.17835,-10.5685 -34.252,-23.0197 -34.252,-23.0197 0,0 28.8225,9.14883 40.7847,18.9118 11.9634,9.76418 17.054,23.9977 17.054,23.9977 0,0 -6.02953,-11.0339 0.820867,-25.7044 6.85158,-14.6693 28.0855,-20.7201 28.0855,-20.7201 0,0 -29.8028,21.8374 -27.2599,33.7028 2.54292,11.8654 11.6445,20.3268 11.6445,20.3268 0,0 -5.63977,-9.9945 7.7126,-19.9772 13.3524,-9.98269 32.237,-3.28583 32.237,-3.28583 0,0 -17.2488,-0.426378 -26.674,11.1721 -9.4252,11.5984 -0.584646,22.5307 2.58898,22.7669 3.17362,0.236221 -12.2658,20.4945 -12.2658,20.4945 0,0 -8.4815,-1.09724 -0.733465,8.82048 7.74804,9.91654 35.1957,10.3228 35.1957,10.3228 0,0 -25.4799,14.9976 -47.2004,7.69961 -21.7205,-7.29686 -29.8075,-24.6603 -29.8075,-24.6603z"/>
   <path id="_46290352" class="fil1" d="M288.912 226.715c-8.02678,4.83426 -16.9843,8.89016 -23.6504,8.20512 -15.4476,-1.59095 -69.5197,-0.947245 -102.302,-3.3815 -32.7851,-2.4378 -39.4677,1.70906 -45.189,-0.892914 -5.72599,-2.60788 -6.50197,-4.68426 -6.50197,-4.68426 0,0 9.10867,-1.04055 20.3799,-19.741 11.2807,-18.698 20.7284,-29.5925 20.7284,-29.5925 0,0 -10.3323,6.00237 -19.7327,18.3047 -9.4004,12.3012 -8.07402,19.6394 -17.3622,25.2567 -9.30001,5.60788 -19.3087,1.05591 -19.3087,1.05591 0,0 3.07205,-2.58071 7.31693,-11.5264 4.24489,-8.94922 10.2862,-16.9075 10.2862,-16.9075 0,0 -7.81182,7.67363 -15.2339,16.3854 -7.42087,8.713 -10.2543,8.11064 -10.2543,8.11064l-12.248 -7.99607c0,0 6.71812,-8.67993 8.35749,-11.9114 1.63819,-3.22205 -10.5662,9.17717 -10.5662,9.17717 0,0 -22.2874,-22.7421 -24.861,-25.8142 -2.57244,-3.08032 -1.75394,-19.2851 3.77126,-31.7965 5.51693,-12.5091 6.87284,-13.9654 6.87284,-13.9654 0,0 8.99646,5.64804 14.6953,7.54607 5.6941,1.90748 10.6441,2.42481 10.6441,2.42481l-22.9725 -12.5256c0,0 15.5398,-17.4425 32.1485,-25.0831 16.604,-7.63938 48.7548,-3.53504 48.7548,-3.53504l-21.6437 -5.19331c0,0 16.2638,-7.27205 63.9615,-11.1248 47.6953,-3.85276 80.3658,4.80591 80.3658,4.80591 0,0 -2.99764,-4.81181 -16.1055,-7.50237 -13.1114,-2.68937 -19.115,-3.52441 -19.115,-3.52441 0,0 4.13504,-2.25591 38.2229,-3.15118 27.2445,-0.713386 51.2563,-4.0063 74.2819,-7.0819 0.768898,0.262205 1.12087,0.426378 1.09252,0.465355 0,0 -20.9977,2.87599 -19.8095,16.1929 1.19055,13.3288 7.64174,16.6063 14.1095,20.5949 6.48189,3.9815 -10.7469,13.7516 -5.91378,20.9658 4.83662,7.20945 16.128,8.20276 31.9477,7.97599 15.8162,-0.222047 40.5579,3.09922 40.5579,3.09922 0,0 -86.3859,13.3476 -104.783,19.9996 -18.398,6.64607 -32.2949,11.3728 -40.4918,18 -8.20158,6.63308 -1.20354,5.67166 9.39331,6.69213 10.5827,1.0252 -2.32795,3.9567 -1.21181,15.1713 1.11024,11.2134 10.0075,14.0528 10.0075,14.0528l-6.66497 10.0913 17.4815 -2.7437c0,0 0.883465,2.34921 0.544489,5.10119zm-6.31772 -9.11576c4.76221,-4.39489 21.4217,-10.6323 28.3925,-12.2882 6.97205,-1.66417 -22.9819,15.9579 -28.3925,12.2882zm8.88544 -26.3481c2.29843,-4.65473 15.8256,-9.72048 31.467,-14.8606 15.6354,-5.15197 23.3421,-6.13347 23.3421,-6.13347 0,0 -42.7583,23.3681 -54.8091,20.9941zm102.452 -74.4355c1.95354,-4.29095 23.6941,3.70866 32.5654,5.84646 8.87245,2.14016 -28.1788,8.42009 -32.5654,-5.84646z"/>
   <path id="_46287792" class="fil2" d="M910.903 144.744c0,0 -235.166,-6.19607 -476.586,-0.563386 -241.414,5.64449 -379.313,29.7603 -379.196,27.5528 0.124016,-2.2004 352.385,-26.726 575.079,-18.5114 222.689,8.20749 254.649,10.0571 304.294,11.4106 49.6382,1.35236 30.267,-18.6898 -23.5914,-19.8886z"/>
   <path id="_46292712" class="fil3" d="M382.328 68.706c0,0 21.6437,5.18977 39.3284,17.5583 17.6847,12.3685 29.0469,24.9673 29.0469,24.9673 0,0 -24.9603,-28.6335 -33.2563,-34.3099 -8.29607,-5.67638 -31.9701,-8.68229 -35.1189,-8.21575z"/>
   <path id="_47805696" class="fil3" d="M423.097 67.9229c0,0 25.9866,8.54883 43.6465,20.2146 17.6587,11.6658 30.0874,24.5776 30.0874,24.5776 0,0 -43.2603,-57.8611 -73.7339,-44.7922z"/>
   <path id="_46956392" class="fil4" d="M415.134 71.628c0,0 12.7358,-2.39646 34.063,9.29883 21.3248,11.6894 37.7811,24.6166 46.9193,34.4693 9.14174,9.85867 15.2858,19.2874 15.2858,19.2874 0,0 -50.478,-45.228 -96.2682,-63.0556z"/>
   <path id="_47074784" class="fil5" d="M359.099 71.3894c0,0 29.7437,-3.19016 55.4587,13.2602 25.715,16.4421 44.3197,40.1847 44.3197,40.1847 0,0 -41.4366,-42.9272 -99.7784,-53.4449z"/>
   <path id="_46986120" class="fil6" d="M462.975 73.402c0,0 14.2618,-3.68386 31.8614,6.91064 17.6032,10.6039 39.7996,41.4071 39.7996,41.4071 0,0 -36.3331,-37.8425 -71.6611,-48.3178z"/>
   <path id="_46986912" class="fil7" d="M423.992 240.887c0,0 33.8185,-5.69528 50.6646,-25.5544 16.8461,-19.8579 45.0012,-39.7229 44.5866,-39.2776 -0.174803,0.188977 -9.68505,9.41812 -20.2075,24.0449 -14.0658,19.5508 -44.5276,38.0823 -75.0438,40.787z"/>
   <path id="_46973248" class="fil7" d="M556.05 239.456c0,0 20.8406,-3.50906 31.2225,-15.7477 10.3807,-12.2374 27.7311,-24.4784 27.4748,-24.2043 -0.10748,0.115748 -5.96693,5.80394 -12.4524,14.8169 -8.66812,12.0484 -27.4394,23.4685 -46.2449,25.1351z"/>
   <path id="_47130480" class="fil7" d="M589.327 84.7064c0,0 20.3374,5.74252 29.3351,19.0311 8.99764,13.2886 24.9213,27.3343 24.6969,27.0343 -0.0944883,-0.127559 -5.30433,-6.41575 -10.7764,-16.0772 -7.31457,-12.9142 -24.7418,-26.2973 -43.2555,-29.9882z"/>
  </g>
  <g id="_48078456">
   <path id="_48896824" class="fil7 str0" d="M642.393 374.275c-1.3689,-12.5421 -12.9284,-31.0843 -43.5839,-40.8815 -30.6579,-9.79725 -33.9142,-6.39331 -33.9142,-6.39331 0,0 -1.05591,7.16457 -14.1803,11.4307 -13.1256,4.26733 -27.2044,13.3347 -27.2044,13.3347 0,0 -8.24056,-2.79921 2.38465,-11.8996 10.624,-9.09922 22.748,-15.4807 22.748,-15.4807 0,0 -2.28189,-5.72126 -34.2059,-13.265 -31.9252,-7.54489 -24.6307,-7.11142 -76.9501,-9.87402 -52.3182,-2.76378 -69.8623,1.20945 -84.5257,1.13032 -14.6622,-0.080315 -10.8248,0.307087 -22.9087,11.0658 -12.0827,10.7575 -25.2213,27.2457 -25.2213,27.2457 0,0 -6.27284,-0.920079 11.1543,-24.1536 17.4272,-23.2323 26.4142,-30.124 26.4142,-30.124 0,0 -24.7831,-7.58386 -57.8552,4.19528 -33.0733,11.7791 -45.3485,10.748 -71.4331,31.1516 -26.0858,20.4024 -33.4713,38.4957 -33.4713,38.4957 0,0 -1.34528,-5.24292 8.96457,-21.4524 10.3099,-16.2106 34.4126,-36.0981 34.4126,-36.0981 -18.3685,2.30906 -26.3173,7.22363 -44.3634,25.402 -16.8591,16.9819 -20.7083,21.6402 -12.8339,7.25197 7.87442,-14.3882 14.2642,-24.9957 14.2642,-24.9957 0,0 -9.26221,8.77324 -24.2882,28.6477 -15.0236,19.8756 -2.98229,20.4142 -14.7295,30.7359 -11.7449,10.3205 -13.115,17.1319 -13.115,17.1319 0,0 19.4575,13.4114 33.6957,40.6382 14.2382,27.2256 40.7835,34.8319 40.7835,34.8319 1.25788,0.19252 -10.5071,-11.0185 -16.0358,-19.2579 -5.52638,-8.24174 -8.72127,-22.8969 -8.72127,-22.8969 0,0 6.75473,13.8898 31.3642,18.5929 24.6095,4.70552 57.2587,7.64882 86.1485,2.2311 28.8898,-5.41772 33.6425,-6.8941 33.6425,-6.8941 0,0 -15.3307,5.70355 -32.5985,-6.78544 -17.2665,-12.4902 -25.5414,-18.8457 -25.5414,-18.8457 0,0 18.7335,7.27442 63.9166,11.8099 45.1831,4.53544 55.1185,9.7193 76.4044,6.04371 21.2835,-3.67559 22.0996,-5.07993 22.0996,-5.07993 0,0 -11.2642,4.22717 -23.6516,-2.80158 -12.3886,-7.02756 0.43937,-14.8689 13.4162,-10.0807 12.978,4.78819 63.3674,15.7512 105.957,11.4213 42.5894,-4.32992 54.5304,-8.1189 75.2871,-15.4665 21.789,-7.71142 36.9638,-17.6043 38.2748,-30.0614z"/>
   <path id="_48896800" class="fil8 str1" d="M428.583 410.625c0,0 -2.11654,-1.36654 -3.81024,-5.66811 -1.6937,-4.30158 -5.63032,-17.7 -5.63032,-17.7 -2.00551,-4.14803 -13.2874,-4.32166 -18.8138,-4.65827 -21.9201,-1.32992 -34.5886,-4.11496 -34.5886,-4.11496 0,0 -1.54252,-1.92402 2.55945,-6.71812 4.10315,-4.79646 2.50748,-8.7945 2.50748,-8.7945 0,0 0.816142,-0.496063 11.8323,-2.14134 11.0173,-1.64528 1.99725,-5.58308 6.35906,-7.11851 4.36181,-1.53662 10.1445,-0.77126 10.1445,-0.77126 0,0 -9.40158,-16.676 -2.99292,-28.1138 6.40867,-11.4378 12.1382,-10.0016 17.0091,0.50315 4.86969,10.5059 9.28347,13.2827 9.28347,13.2827 0,0 -7.88386,-15.5917 8.09174,-20.4236 15.9768,-4.82953 25.9843,-6.99922 25.9843,-6.99922 -0.900001,-3.10512 -1.76103,-6.12756 -2.55236,-9.16064 0,0 14.1012,0.575197 39.8681,4.4067 25.7669,3.83268 38.6492,10.1173 47.7567,13.8851 9.10749,3.76654 6.02363,4.2874 6.02363,4.2874 0,0 -0.303544,0.840946 -9.28938,7.87205 -8.98347,7.02993 -18.0603,22.1717 -14.6705,19.8886 3.39095,-2.28189 10.5815,-7.30985 20.7071,-11.3717 10.1256,-4.06418 13.3146,-5.41772 16.3547,-8.44489 3.04134,-3.02599 1.89685,-4.76693 3.8752,-5.71772 1.97717,-0.950788 27.6768,0.0354331 51.1028,14.8902 23.4272,14.8559 31.5166,32.5441 21.8705,43.1516 -9.64725,10.6075 -21.3792,22.6158 -73.2036,31.0866 -51.8256,8.47087 -61.9583,9.11812 -94.167,4.43386 -32.211,-4.68189 -42.339,-9.75237 -41.6115,-9.77127z"/>
   <path id="_48258632" class="fil7 str1" d="M53.713 394.59c16.2602,1.97835 67.5284,-2.97047 128.793,-4.74213 68.002,-1.96654 151.186,-7.78938 201.15,-7.84489 49.9619,-0.0555119 86.4686,0.43937 116.361,-0.375591 30.3756,-0.829135 45.4004,-1.59449 67.865,-3.09685 22.4658,-1.50354 45.8587,-6.29174 45.8587,-6.29174 -1.20945,-2.80276 -99.3225,1.88032 -136.958,2.42835 -37.637,0.549213 -59.2548,-1.85433 -99.6969,-3.4063 -42.5126,-1.62992 -92.6989,1.70906 -139.604,5.51457 -46.904,3.8067 -82.7953,0.500788 -108.765,-0.865749 -25.3477,-1.33347 -40.767,-0.903544 -40.767,-0.903544 -13.0358,0.303544 -30.202,5.83819 -36.0449,11.478 -2.78268,2.68583 -1.10079,7.09725 1.80827,8.10591z"/>
   <path id="_48130368" class="fil9 str0" d="M417.965 387.78c0,0 2.54055,18.9343 -11.0445,16.239 -13.5862,-2.69528 -6.55512,-16.5213 -6.55512,-16.5213 5.92087,0.0637796 11.7602,0.172441 17.5996,0.282284z"/>
   <path id="_47108016" class="fil9 str1" d="M375.616 393.428c3.43347,-2.8689 16.8827,0.454725 13.7209,7.19056 -3.16181,6.73701 -7.52835,6.763 -11.7225,3.60237 -4.19528,-3.16299 -6.59528,-6.77717 -1.99843,-10.7929z"/>
   <path id="_47124264" class="fil9 str1" d="M378.674 415.668c3.79252,-0.905906 16.5992,-3.98032 16.6228,0.0377953 0.0248032,4.01811 -0.748819,6.11103 -9.52442,5.5878 -8.7756,-0.52441 -9.00001,-1.76811 -7.09843,-5.62559z"/>
   <path id="_47529016" class="fil9 str1" d="M394.379 346.498c-0.101575,-6.02953 -4.10906,-13.3547 -11.1898,-12.5847 -7.07835,0.768898 -7.82008,3.98859 -7.10434,11.7957 0.718111,7.80709 16.35,8.25355 18.2941,0.788977z"/>
   <path id="_48683512" class="fil9 str0" d="M427.165 310.125c-5.42008,-4.48111 -7.09253,-5.23347 -9.84213,0.0200788 -2.74961,5.25237 -1.45984,9.74883 4.34882,9.03072 5.80985,-0.718111 10.5461,-4.86733 5.49331,-9.05079z"/>
   <path id="_48024512" class="fil9 str0" d="M415.581 300.604c0,0 -0.696851,10.2449 -11.3669,11.9126 -10.6713,1.67008 -13.4492,-6.39449 -13.4492,-6.39449 0,0 -8.16733,4.95945 -11.2772,1.40197 -3.11103,-3.55748 -2.82284,-5.98465 -2.82284,-5.98465 0,0 34.4563,-1.02402 38.9162,-0.935434z"/>
   <path id="_48078480" class="fil9 str1" d="M452.875 302.446c0,0 -0.43937,7.39961 -9.01772,7.70197 -8.57953,0.302362 -11.7614,-8.97402 -11.7614,-8.97402 6.87756,0.373229 13.8638,0.816142 20.7792,1.27205z"/>
   <path id="_48243296" class="fil7 str2" d="M120.157 395.896c3.69685,-1.32874 7.9878,-1.73268 8.5441,-12.5752 0.558662,-10.8413 -1.70079,-12.737 -5.47087,-14.1484 -3.7689,-1.41024 -19.2732,-2.21103 -37.8827,0.594095 -18.6071,2.8063 -29.9008,4.37953 -27.4264,19.7575 2.47323,15.378 21.2599,12.2162 28.7847,11.4461 19.7209,-2.01614 29.7567,-3.74528 33.4512,-5.07402z"/>
  </g>
  <g id="_48091104">
   <path id="_48891040" class="fil10" d="M870.303 392.475c0,0 23.3079,113.471 37.6595,192.88 14.3504,79.4091 14.8701,98.8394 14.8701,98.8394 0,0 -12.978,-34.3866 -17.3858,-38.5087 -4.40906,-4.12323 12.4181,27.5055 16.4858,68.563 4.06772,41.0552 3.63662,49.8095 3.63662,49.8095 0,0 -8.51457,-32.6303 -13.5343,-41.2677 -5.01851,-8.63387 9.33544,27.6756 10.4776,61.8012 1.14095,34.1256 -7.71497,38.4296 -8.67875,60.6674 -0.96378,22.239 -1.7315,24.8268 -1.7315,24.8268 0,0 -10.9996,-38.1307 -14.3551,-36.3107 -3.3567,1.82008 10.5047,39.0674 10.2543,61.0855 -0.246851,22.0158 4.43504,24.4878 -22.6949,30.5197 -27.1288,6.03308 -39.313,-10.5756 -39.313,-10.5756 0,0 5.21457,-11.015 15.4902,-25.9441 10.2756,-14.9291 14.661,-31.1705 14.661,-31.1705 0,0 -24.4004,32.6138 -30.2268,39.117 -5.82756,6.50197 -8.41536,5.73426 -8.41536,5.73426 0,0 -5.96811,-19.3134 -9.12757,-37.1433 -3.15827,-17.8299 -3.07914,-42.9307 -3.07914,-42.9307 0,0 17.5973,-14.0563 26.6114,-25.461 9.01418,-11.4047 17.1945,-28.037 17.1945,-28.037 0,0 -39.5256,41.9894 -44.3115,44.2512 -4.78583,2.26418 -1.53071,-37.9217 0.734646,-76.2343 2.26536,-38.3126 28.0559,-58.8201 28.0559,-58.8201l-24.4642 24.7984c0,0 -2.36339,-43.1504 1.28032,-79.5367 3.64488,-36.3874 1.54134,-91.3737 0.661418,-137.333 -0.881103,-45.9591 1.08425,-59.8867 9.70749,-75.091 8.62324,-15.202 28.989,-15.2256 29.537,-18.5291z"/>
   <path id="_46351864" class="fil11" d="M917.848 689.201c1.73032,7.73032 3.20433,16.1693 4.08426,25.0477 4.06772,41.0552 3.63662,49.8095 3.63662,49.8095 0,0 -8.51457,-32.6303 -13.5343,-41.2677 -5.01851,-8.63387 9.33544,27.6756 10.4776,61.8012 1.14095,34.1256 -7.71497,38.4296 -8.67875,60.6674 -0.96378,22.239 -1.7315,24.8268 -1.7315,24.8268 0,0 -10.9996,-38.1307 -14.3551,-36.3107 -3.3567,1.82008 10.5047,39.0674 10.2543,61.0855 -0.246851,22.0158 4.43504,24.4878 -22.6949,30.5197 -27.1288,6.03308 -39.313,-10.5756 -39.313,-10.5756 0,0 5.21457,-11.015 15.4902,-25.9441 10.2756,-14.9291 14.661,-31.1705 14.661,-31.1705 0,0 -24.4004,32.6138 -30.2268,39.117 -5.82756,6.50197 -8.41536,5.73426 -8.41536,5.73426 0,0 -5.96811,-19.3134 -9.12757,-37.1433 -3.15827,-17.8299 -3.07914,-42.9307 -3.07914,-42.9307 0,0 17.5973,-14.0563 26.6114,-25.461 9.01418,-11.4047 17.1945,-28.037 17.1945,-28.037 0,0 -39.5256,41.9894 -44.3115,44.2512 -4.78583,2.26418 -1.53071,-37.9217 0.734646,-76.2343 0.0413386,-0.709843 0.0956694,-1.41496 0.153543,-2.11181 0.770079,-0.520867 1.2437,-0.742914 1.32756,-0.696851 0,0 10.6146,-8.76497 26.8335,-24.7465 16.2189,-15.9815 24.1382,-20.7792 16.3465,-0.349607 -7.79056,20.4295 5.90315,11.4957 5.90315,11.4957 0,0 -6.86812,10.7421 -5.91851,21.4193 0.948426,10.676 12.5374,-10.1421 12.5374,-10.1421 0,0 3.96614,2.69173 3.1063,20.1969 -0.858662,17.504 10.0665,-5.46024 7.94764,-27.5327 -2.11772,-22.0677 -0.583465,-27.2433 -0.583465,-27.2433 0,0 4.3689,16.6713 8.44016,14.6291 4.07008,-2.04095 -6.20197,-30.2091 -6.20197,-30.2091 0,0 6.39922,10.5591 11.0799,13.0311 4.68189,2.47205 -1.57087,-25.3713 -1.57087,-25.3713 0,0 5.99764,5.93977 12.9225,19.8461z"/>
   <path id="_84330504" class="fil7" d="M862.962 397.888c0,0 21.0118,104.766 24.9839,203.838 3.97205,99.0721 -0.949607,171.9 -0.949607,171.9 0,0 10.2331,-141.858 2.1378,-236.522 -8.0941,-94.6642 -18.5894,-150.18 -26.1721,-139.217z"/>
   <path id="_47537168" class="fil12" d="M857.403 397.643c0,0 -8.62442,-44.3741 -18.9248,-76.4493 -10.3016,-32.074 -16.089,-43.2071 -7.01221,-46.7941 9.07678,-3.58701 16.1788,23.2063 28.9984,64.6938 12.8197,41.4874 11.491,53.6469 12.3225,58.8756 0.832678,5.22756 -12.6272,3.52323 -15.3839,-0.325985z"/>
  </g>
  <g id="_48500072">
   <path id="_48721640" class="fil13" d="M589.744 580.873c18.1843,18.7819 70.8603,9.49843 69.3579,10.7882 -34.0429,29.2016 -77.5052,99.906 -101.35,120.861 -23.8465,20.9551 -72.9839,58.7115 -73.7044,59.2524 9.20079,-1.12677 25.6016,-9.50906 37.252,-20.0646 17.341,-15.711 33.3673,-16.0831 33.3673,-16.0831 0,0 -8.47678,30.3662 -33.0449,46.2638 -24.5681,15.8965 -44.2642,16.4421 -50.2158,13.9169 -5.95158,-2.5252 -16.9843,-20.2417 -19.8756,-44.6268 -2.89134,-24.3862 10.2862,-45.8906 10.2862,-45.8906 0,0 1.98425,34.4799 5.07638,44.6292 3.09095,10.1492 5.45906,13.148 10.2886,17.5158 0,0 -11.9221,-37.5709 -11.1992,-64.3075 0.722835,-26.7355 22.4008,-69.3686 39.7418,-93.2139 17.3421,-23.8453 63.5823,-67.1752 78.3969,-80.6646 0.925985,-0.843308 1.83071,-1.66063 2.71418,-2.45197l2.90906 54.0756zm-118.347 217.107c0,0 6.50552,2.51929 20.2347,-0.00944883 13.7303,-2.52874 34.8662,-1.7941 36.6697,11.0102 -17.674,-7.57442 -25.1067,7.59449 -41.726,9.76182 -16.6193,2.16851 -21.137,-9.20316 -15.1784,-20.7626zm12.091 -26.1614c-1.3689,-0.258662 -4.52244,-2.23229 -6.12284,-4.15276 0.734646,1.03819 2.39764,4.28977 6.12284,4.15276z"/>
   <path id="_84216736" class="fil14" d="M586.835 526.797c13.2543,-11.8748 21.6969,-17.9835 23.739,-19.0051 -5.56536,5.30552 -6.57756,41.4237 -6.57756,41.4237 4.26733,-39.1453 17.3941,-47.217 22.9784,-53.4851 5.58308,-6.2693 27.1477,-17.028 41.6941,-22.415 -10.3441,4.32992 -12.6697,34.1528 -12.6697,34.1528 6.0756,-28.0807 19.5083,-36.0969 25.8803,-38.3528 0.688583,-0.282284 2.00079,-0.485433 3.33307,-0.826772 20.4898,-4.77284 42.078,-1.61929 53.9091,8.66812 11.8311,10.2874 7.49882,20.0906 1.83189,32.6681 -0.53504,0.229134 -22.5697,10.3583 -48.4394,16.1067 -25.8697,5.74843 -42.6331,4.33583 -42.6331,4.33583 0,0 14.9906,4.66536 41.5489,0 26.5595,-4.66536 45.1796,-10.9949 45.6874,-11.1484 -15.5327,24.0981 -46.4256,44.9055 -70.4457,62.9871 -5.61851,4.03465 -22.1622,4.98662 -39.0036,6.13937 -16.8414,1.15276 -37.5177,-7.35591 -37.5177,-7.35591 -11.7118,-14.6492 -9.47717,-36.704 -3.31536,-53.8926zm-109.469 240.868c3.9,5.51339 6.32953,7.59449 0,0z"/>
   <path id="_48286392" class="fil15" d="M439.968 885.943c0,0 18.7878,-94.6595 77.3174,-207.384 58.5296,-112.723 151.022,-172.699 151.022,-172.699 0,0 -98.2725,72.9816 -145.963,176.312 -47.6918,103.33 -72.2599,182.093 -75.1501,200.158 -2.89016,18.065 -10.1161,18.7878 -7.22599,3.61299z"/>
   <path id="_48683152" class="fil16" d="M587.738 591.126c0,0 -37.9359,48.4134 -56.7237,88.1564 -18.7866,39.7429 -20.2323,50.5819 -5.78032,44.439 14.452,-6.14174 38.6587,-29.6256 66.4784,-66.117 27.8197,-36.4902 46.2461,-59.9752 46.2461,-59.9752 0,0 -30.711,7.94883 -50.2205,-6.50315z"/>
   <path id="_48663800" class="fil17" d="M574.009 545.241c0,0 -3.61299,13.3689 -0.361418,22.4008 3.25158,9.0319 6.14174,11.5618 6.14174,11.5618 0,0 -41.9103,43.3548 -60.3355,84.182 -18.4264,40.826 -42.9945,54.9166 -40.4658,28.9028 2.52874,-26.0126 12.6449,-64.3099 44.439,-97.9111 31.7941,-33.6 50.5819,-49.1363 50.5819,-49.1363z"/>
   <path id="_47077008" class="fil18" d="M456.529 721.907c-1.62284,5.95158 -6.49252,24.528 -1.80354,40.3996 4.69016,15.8705 9.55867,22.904 13.3465,14.9693 3.7878,-7.93583 -1.62284,-17.1343 -3.7878,-29.0374 -2.16378,-11.9032 -5.59016,-33.365 -7.75512,-26.3315z"/>
   <path id="_48682936" class="fil19" d="M491.338 772.947c5.95158,-2.5252 20.3799,-9.91891 29.9386,-16.5921 9.55867,-6.67323 23.2654,-3.06614 16.7728,5.77087 -6.49252,8.83701 -15.15,18.7571 -30.4796,24.7087 -15.3295,5.95158 -29.9386,-7.75512 -16.2319,-13.8874z"/>
   <path id="_48286416" class="fil20" d="M632.914 541.014c-4.86969,4.14803 -28.8567,28.8567 -30.2988,32.824 -1.44331,3.96851 3.24567,11.7236 22.904,10.8213 19.6595,-0.901182 40.7599,-6.85276 62.5831,-24.528 21.8221,-17.674 31.5614,-29.7579 31.5614,-29.7579 0,0 -37.6937,9.91891 -55.5485,7.75512 -17.8547,-2.16378 -24.3473,-4.14803 -31.2012,2.88544z"/>
   <path id="_48611032" class="fil21" d="M611.092 530.013c3.24567,-9.01772 9.01772,-28.1351 24.3473,-37.1528 15.3295,-9.01772 21.8221,-10.2803 21.8221,-10.2803 0,0 -5.77087,13.526 -5.41063,20.5606 0.361418,7.03347 -7.39371,11.1815 -20.9209,23.987 -13.526,12.8043 -23.0847,21.2811 -19.8378,2.88544z"/>
   <path id="_47841608" class="fil22" d="M659.606 504.763c0,0 5.59134,-18.9366 11.5429,-25.0689 5.95158,-6.13229 19.4776,-12.985 36.4311,-10.2803 16.9536,2.70591 37.513,13.8874 33.5457,26.1508 -3.96733,12.2646 -23.6268,17.8547 -45.4489,22.004 -21.8221,4.14803 -36.4311,3.42638 -36.4311,3.42638l16.5921 -20.5606c0,0 -16.4114,4.50945 -16.2319,4.32874z"/>
  </g>
  <g id="_49202608">
   <path id="_47474752" class="fil23" d="M127.351 812.162c0,0 -15.1642,-37.3524 -10.4622,-68.2548 4.70315,-30.9012 27.3732,-56.2571 27.3732,-56.2571 -1.67835,4.86615 -1.64528,15.2823 1.20945,28.3784 2.85355,13.0961 9.21379,20.1555 11.0823,27.874 1.86732,7.71851 1.18465,16.6925 1.18465,16.6925 0,0 9.05434,-13.5024 3.6815,-27.9414 -5.37284,-14.4402 -10.2425,-25.1823 -11.0811,-36.4323 -0.839764,-11.2512 0.335433,-21.1595 8.56418,-32.9126 8.22757,-11.7532 70.5083,-78.2776 116.862,-107.836 46.3524,-29.5583 77.5902,-46.6878 99.0875,-41.3138 6.23504,1.55906 7.09134,8.34331 3.5374,22.2248 -5.0504,1.8874 -14.7095,1.32402 -20.276,1.96654 -7.28268,0.839764 -22.578,9.20906 -22.8272,9.60355 1.13032,-0.276378 18.9862,-7.87323 22.7445,-8.31615 7.73268,-0.90945 14.0102,-0.175984 20.061,-1.5378 -9.1819,34.1658 -39.9922,93.9615 -55.9784,115.117 -22.8425,30.2292 -30.913,33.2634 -30.913,33.2634 0,0 -18.9709,6.89882 -34.4173,6.56339 -15.4465,-0.335433 -16.1079,-3.94488 -26.5146,-3.9437 -10.4079,0.0011811 -24.0555,13.0701 -24.0555,13.0701 0,0 11.9799,-8.29253 21.7122,-7.62048 9.73229,0.670867 11.5784,4.69843 26.5134,4.86615 14.9339,0.167717 31.0429,-5.53819 31.0429,-5.53819 0,0 -22.9689,39.0733 -40.9536,60.9343 -17.9835,21.861 -46.6737,48.5233 -61.7835,55.5756 -15.111,7.05119 -50.0363,14.2878 -50.0363,14.2878l-5.35748 -12.5138z"/>
   <path id="_47482464" class="fil24" d="M352.685 523.564c0,0 -112.859,105.469 -178.022,209.595 -65.1626,104.126 -103.454,182.053 -100.095,191.457 3.35788,9.40513 41.9859,-78.2634 109.163,-187.764 67.1776,-109.5 168.953,-213.288 168.953,-213.288z"/>
   <path id="_46251920" class="fil25" d="M101.904 862.522c-5.3693,11.0752 -18.1228,35.5748 -20.3043,43.1256 -2.1815,7.55079 2.1815,1.67835 8.39056,-11.7461 6.20788,-13.4244 71.3162,-127.7 79.7068,-142.13 8.39056,-14.4319 73.3536,-111.132 127.53,-169.24 54.176,-58.1091 39.5575,-43.5851 39.5575,-43.5851 0,0 -80.8394,81.9674 -124.632,143.019 -43.7929,61.0512 -100.759,158.864 -110.248,180.558z"/>
   <path id="_47118248" class="fil26" d="M167.969 660.958c-8.57363,13.7811 -10.7457,27.8705 -7.72323,42.3107 3.02244,14.439 10.4102,9.06615 30.8929,-17.4614 20.4839,-26.5288 59.3871,-74.0209 82.6064,-97.0454 23.2193,-23.0256 47.3469,-46.3406 56.0776,-53.7272 8.73072,-7.3878 -18.8043,-3.35906 -58.0926,27.8705 -39.2882,31.2296 -95.1863,84.2717 -103.761,98.0528z"/>
   <path id="_48752864" class="fil27" d="M226.399 697.896c0,0 9.07796,1.01575 13.441,2.6941 4.363,1.67835 12.9213,2.85236 19.8012,2.01378 6.87993,-0.838583 15.1028,-2.1815 15.1028,-2.1815 0,0 -16.4445,35.4177 -48.0095,65.9752 -31.565,30.5575 -58.0926,42.9827 -68.5028,44.3256 -10.4091,1.34291 -9.06615,-7.3878 16.4539,-46.004 25.5213,-38.6174 51.7134,-66.8233 51.7134,-66.8233z"/>
   <path id="_47525448" class="fil28" d="M234.793 686.143c0,0 25.8567,-32.9079 48.691,-48.3544 22.8343,-15.4476 21.8268,8.05867 12.424,27.1984 -9.40158,19.141 -12.0189,21.6721 -12.0189,21.6721 0,0 -9.73465,4.02874 -22.9063,4.11378 -13.1717,0.0850394 -20.1354,-4.11024 -26.1898,-4.62992z"/>
   <path id="_49183704" class="fil29" d="M141.507 697.067c0,0 -0.839764,16.9477 4.1941,29.1981 5.03504,12.2492 8.39056,22.1492 -0.838583,36.078 -9.22914,13.9276 -22.8213,19.4646 -25.3382,7.21536 -2.51693,-12.2504 0.167717,-32.387 5.3693,-45.1394 5.20158,-12.7536 16.4445,-27.6886 16.6134,-27.352z"/>
   <path id="_48134104" class="fil30" d="M80.6611 926.496c-13.0158,-1.51536 -11.2488,1.59331 -2.85473,3.27284 8.39528,1.67953 124.078,22.3311 211.384,25.6878 87.3072,3.3567 200.535,8.7945 200.535,8.7945l0 -33.0851c0,0 -83.3091,-2.51929 -193.481,-2.51929 -110.171,0 -82.6194,10.748 -120.239,7.39016 -37.6193,-3.35906 -78.2623,-7.13741 -95.3446,-9.54095z"/>
  </g>
 </g>
</svg>
